<?xml version="1.0" encoding="UTF-8"?>
<svg id="Camada_1" xmlns="http://www.w3.org/2000/svg" version="1.1" viewBox="0 0 1000 1250">
  <!-- Generator: Adobe Illustrator 29.8.4, SVG Export Plug-In . SVG Version: 2.1.1 Build 6)  -->
  <defs>
    <style>
      .st0 {
        fill: #fff;
      }
    </style>
  </defs>
  <path class="st0" d="M507.14,774.89c-38.4,0-69.63-28.67-69.63-63.9,0-8.84,7.16-16,16-16s16,7.16,16,16c0,17.59,16.88,31.9,37.63,31.9s37.63-14.31,37.63-31.9-16.88-31.9-37.63-31.9h-.28c-38.39,0-69.63-28.66-69.63-63.89s31.24-63.9,69.63-63.9,69.63,28.67,69.63,63.9c0,8.84-7.16,16-16,16s-16-7.16-16-16c0-17.59-16.88-31.9-37.63-31.9s-37.63,14.31-37.63,31.9,16.88,31.89,37.63,31.89h.28c38.39,0,69.63,28.67,69.63,63.9s-31.24,63.9-69.63,63.9Z"/>
  <path class="st0" d="M676.54,774.89c-38.4,0-69.64-28.67-69.64-63.9,0-8.84,7.16-16,16-16s16,7.16,16,16c0,17.59,16.89,31.9,37.64,31.9s37.63-14.31,37.63-31.9-16.89-31.9-37.63-31.9h-.28c-38.39,0-69.63-28.66-69.63-63.89s31.24-63.9,69.63-63.9,69.63,28.67,69.63,63.9c0,8.84-7.16,16-16,16s-16-7.16-16-16c0-17.59-16.88-31.9-37.63-31.9s-37.63,14.31-37.63,31.9,16.88,31.89,37.63,31.89h.28c38.39,0,69.63,28.67,69.63,63.9s-31.24,63.9-69.63,63.9Z"/>
  <path class="st0" d="M332.1,774.88c-22.23,0-42.63-12.54-57.44-35.33-13.43-20.66-20.83-47.81-20.83-76.46s7.4-55.79,20.83-76.45c14.81-22.79,35.21-35.34,57.44-35.34,30.75,0,57.87,24.36,70.78,63.56,2.76,8.39-1.81,17.44-10.2,20.2-8.39,2.76-17.44-1.81-20.2-10.2h0c-8.31-25.25-24.16-41.57-40.38-41.57-14.89,0-25.57,13-30.61,20.78-9.95,15.3-15.66,36.81-15.66,59s5.71,43.72,15.66,59c5,7.76,15.72,20.77,30.61,20.77,16.22,0,32.07-16.31,40.38-41.56,2.76-8.39,11.81-12.96,20.2-10.2,8.39,2.76,12.96,11.81,10.2,20.2h0c-12.88,39.25-40.03,63.6-70.78,63.6Z"/>
  <path class="st0" d="M797.46,269.26h-155.54c-8.84,0-16-7.16-16-16V100c0-8.84,7.16-16,16-16,4.2,0,8.24,1.65,11.23,4.6l155.54,153.26c6.3,6.2,6.37,16.33.17,22.63-3.01,3.05-7.12,4.77-11.4,4.77ZM657.92,237.26h100.51l-100.51-99v99Z"/>
  <path class="st0" d="M327.45,357.12c-4.46,0-8.71-1.85-11.74-5.12l-62.82-67.86c-5.68-6.13-5.68-15.61,0-21.74l62.82-67.86c5.95-6.53,16.07-7,22.6-1.04,6.53,5.95,7,16.07,1.04,22.6-.06.06-.11.12-.17.18l-52.75,57,52.75,57c6,6.48,5.61,16.61-.87,22.61-2.96,2.74-6.84,4.26-10.87,4.26v-.03Z"/>
  <path class="st0" d="M517,357.12c-8.84,0-16-7.16-16-16,0-4.03,1.52-7.91,4.26-10.87l52.76-57-52.76-57c-6-6.49-5.61-16.61.88-22.62,6.49-6,16.61-5.61,22.61.88l62.81,67.86c5.68,6.13,5.68,15.61,0,21.74l-62.81,67.89c-3.03,3.27-7.29,5.13-11.75,5.12Z"/>
  <path class="st0" d="M394.79,396.37c-8.84,0-16.01-7.15-16.02-15.98,0-1.36.17-2.71.51-4.02l54.9-214.22c2.19-8.56,10.91-13.72,19.47-11.53s13.72,10.91,11.53,19.47l-54.9,214.25c-1.81,7.08-8.19,12.03-15.49,12.03Z"/>
  <path class="st0" d="M808.21,825.73H191.79c-42.33-.04-76.63-34.34-76.67-76.67v-171.93c.04-42.33,34.34-76.63,76.67-76.67h616.42c42.33.04,76.63,34.34,76.67,76.67v171.93c-.04,42.33-34.34,76.63-76.67,76.67ZM191.79,532.46c-24.66.03-44.64,20.01-44.67,44.67v171.93c.03,24.66,20.01,44.64,44.67,44.67h616.42c24.66-.03,44.64-20.01,44.67-44.67v-171.93c-.03-24.66-20.01-44.64-44.67-44.67H191.79Z"/>
  <path class="st0" d="M797.46,532.46c-8.84,0-16-7.16-16-16V253.26c0-8.84,7.16-16,16-16s16,7.16,16,16v263.2c0,8.84-7.16,16-16,16Z"/>
  <path class="st0" d="M202.54,532.46c-8.84,0-16-7.16-16-16V154.07c.04-38.68,31.38-70.03,70.06-70.07h385.32c8.84,0,16,7.16,16,16s-7.16,16-16,16h-385.32c-21.01.03-38.04,17.06-38.06,38.07v362.39c0,8.84-7.16,16-16,16h0Z"/>
  <path class="st0" d="M743.4,916h-486.8c-36.28,0-66.55-27.7-69.78-63.83,0-.47-.06-.93-.06-1.4v-41c0-8.84,7.16-16,16-16h0c8.84,0,16,7.16,16,16v40.27c2.18,19.28,18.43,33.89,37.84,34h486.8c19.66-.11,36.04-15.08,37.9-34.65,0-.42.09-.83.16-1.24v-38.42c0-8.84,7.16-16,16-16s16,7.16,16,16v41c0,1.48-.2,2.96-.61,4.39-4.6,34.84-34.31,60.88-69.45,60.88Z"/>
</svg>