<?xml version="1.0" encoding="UTF-8"?>
<svg id="Camada_1" xmlns="http://www.w3.org/2000/svg" version="1.1" viewBox="0 0 110 135">
  <!-- Generator: Adobe Illustrator 29.8.4, SVG Export Plug-In . SVG Version: 2.1.1 Build 6)  -->
  <defs>
    <style>
      .st0 {
        fill: #fff;
      }
    </style>
  </defs>
  <path class="st0" d="M58.81,34.98c-.15-.28-.45-.46-.77-.46h-3.03s-3.05,0-3.05,0c-.32,0-.61.18-.77.46l-18.4,33.66c-.93,1.69-1.14,3.64-.6,5.49l5.18,17.79-4.5,10.66c-.25.55.2,1.23.8,1.21h42.66c.61.02,1.06-.66.8-1.21l-4.5-10.65,5.18-17.79c.54-1.85.32-3.8-.6-5.49l-18.41-33.67ZM55,66.25c7.59.24,7.59,11.25,0,11.49-7.59-.24-7.59-11.25,0-11.49ZM75.01,102.04h-40.02l3.88-9.18h32.26l3.88,9.18ZM76.13,73.65l-5.08,17.46h-32.1l-5.08-17.46c-.41-1.4-.25-2.88.45-4.16l18.15-33.21h1.65v28.28c-9.25,1.3-8.52,14.69.87,14.94,9.38-.24,10.12-13.62.88-14.93v-28.28h1.64l18.15,33.21c.7,1.28.86,2.76.45,4.16h0ZM102.19,64.79h-2.57c-.38-19.84-13.67-36.69-32.22-42.01h20.86c1.21,6.91,11.22,6.18,11.39-.88-.17-7.06-10.18-7.79-11.39-.88h-27.6c-1.04-6.42-10.26-6.41-11.3,0h-27.6c-1.21-6.92-11.22-6.18-11.39.88.17,7.05,10.18,7.79,11.39.88h20.84c-18.54,5.32-31.83,22.17-32.22,42.01h-2.57c-1.28,0-2.31,1.04-2.31,2.31v6.85c0,1.27,1.04,2.31,2.31,2.31h6.85c1.27,0,2.31-1.04,2.31-2.31v-6.85c0-1.27-1.04-2.31-2.31-2.31h-2.54c.43-21.24,16.25-38.91,37.28-41.64,1.33,5.93,9.85,5.92,11.18,0,21.03,2.73,36.85,20.41,37.27,41.64h-2.53c-1.27,0-2.31,1.04-2.31,2.31v6.85c0,1.27,1.04,2.31,2.31,2.31h6.85c1.27,0,2.31-1.04,2.31-2.31v-6.85c0-1.28-1.04-2.31-2.32-2.31h0ZM93.9,17.92c5.26.14,5.26,7.84,0,7.98-5.26-.14-5.25-7.84,0-7.98ZM16.1,25.89c-5.26-.14-5.26-7.84,0-7.98,5.26.14,5.25,7.84,0,7.98ZM14.66,66.54c.31,0,.56.25.56.56v6.85c0,.31-.25.56-.56.56h-6.85c-.31,0-.56-.25-.56-.57v-6.85c0-.31.25-.56.56-.56h6.85ZM55,25.89c-5.26-.14-5.25-7.84,0-7.98,5.26.14,5.26,7.84,0,7.98ZM102.75,73.95c0,.31-.25.56-.56.56h-6.85c-.31,0-.56-.25-.56-.56v-6.85c0-.31.25-.56.56-.56h6.85c.31,0,.56.25.56.56v6.85Z"/>
</svg>