<svg xmlns="http://www.w3.org/2000/svg" version="1.1" viewBox="-5.0 -10.0 110.0 135.0">
 <path d="m53.809 24.977c-0.15234-0.28125-0.44922-0.45703-0.76953-0.45703h-3.0312c-0.003906-0.003906-3.0469 0-3.0508 0-0.32031 0-0.61328 0.17578-0.76953 0.45703l-18.398 33.664c-0.92578 1.6914-1.1367 3.6406-0.59766 5.4922l5.1758 17.789-4.5 10.656c-0.25 0.55078 0.19531 1.2344 0.80469 1.2148h42.66c0.60547 0.015625 1.0625-0.66406 0.80469-1.2148l-4.5-10.652 5.1758-17.789c0.53906-1.8516 0.32422-3.8008-0.59766-5.4922zm-3.8086 31.27c7.5938 0.24219 7.5938 11.25 0 11.488-7.5938-0.23828-7.5898-11.25 0-11.488zm20.008 35.797h-40.02l3.8789-9.1836h32.262zm1.1211-28.398-5.0781 17.457h-32.102l-5.0781-17.457c-0.40625-1.4023-0.24609-2.8828 0.45312-4.1641l18.152-33.207h1.6523v28.277c-9.2461 1.2969-8.5195 14.695 0.86719 14.938 9.3828-0.24219 10.117-13.625 0.88281-14.934l0.003906-28.281h1.6406l18.152 33.207c0.69922 1.2812 0.85938 2.7617 0.45312 4.1641zm26.059-8.8555h-2.5742c-0.38281-19.836-13.672-36.691-32.219-42.012h20.855c1.2109 6.9141 11.219 6.1797 11.387-0.875-0.17188-7.0586-10.176-7.7891-11.387-0.875h-27.602c-1.043-6.418-10.258-6.4141-11.297 0h-27.602c-1.2109-6.918-11.219-6.1797-11.387 0.875 0.16797 7.0547 10.176 7.7891 11.387 0.875h20.844c-18.543 5.3164-31.832 22.172-32.215 42.012h-2.5664c-1.2773 0-2.3125 1.0352-2.3125 2.3125v6.8516c0 1.2734 1.0352 2.3125 2.3125 2.3125h6.8516c1.2734 0 2.3125-1.0352 2.3125-2.3125v-6.8516c0-1.2734-1.0352-2.3125-2.3125-2.3125h-2.5352c0.42578-21.238 16.246-38.91 37.281-41.637 1.332 5.9258 9.8516 5.9219 11.184 0 21.027 2.7344 36.848 20.41 37.273 41.637h-2.5273c-1.2734 0-2.3125 1.0352-2.3125 2.3125v6.8516c0 1.2734 1.0352 2.3125 2.3125 2.3125h6.8516c1.2734 0 2.3125-1.0352 2.3125-2.3125v-6.8516c-0.003906-1.2773-1.0391-2.3125-2.3164-2.3125zm-8.2891-46.875c5.2578 0.13672 5.2578 7.8359 0 7.9766-5.2578-0.14062-5.2539-7.8398 0-7.9766zm-77.797 7.9766c-5.2578-0.13672-5.2578-7.8359 0-7.9766 5.2578 0.13672 5.2539 7.8359 0 7.9766zm-1.4375 40.648c0.30859 0 0.5625 0.25 0.5625 0.5625v6.8516c0 0.30859-0.25 0.5625-0.5625 0.5625l-6.8516-0.003906c-0.30859 0-0.5625-0.25-0.5625-0.5625v-6.8516c0-0.30859 0.25-0.5625 0.5625-0.5625zm40.336-40.648c-5.2578-0.13672-5.2539-7.8359 0-7.9766 5.2578 0.13672 5.2578 7.8359 0 7.9766zm47.75 48.062c0 0.30859-0.25 0.5625-0.5625 0.5625h-6.8516c-0.30859 0-0.5625-0.25-0.5625-0.5625v-6.8516c0-0.30859 0.25-0.5625 0.5625-0.5625h6.8516c0.30859 0 0.5625 0.25 0.5625 0.5625z"/>
<text x="0.0" y="117.5" font-size="5.0" font-weight="bold" font-family="Arbeit Regular, Helvetica, Arial-Unicode, Arial, Sans-serif" fill="#000000">Created by mangunkarsa</text><text x="0.0" y="122.5" font-size="5.0" font-weight="bold" font-family="Arbeit Regular, Helvetica, Arial-Unicode, Arial, Sans-serif" fill="#000000">from Noun Project</text></svg>