<?xml version="1.0" encoding="UTF-8"?>
<svg id="Camada_1" xmlns="http://www.w3.org/2000/svg" version="1.1" viewBox="0 0 120 150">
  <!-- Generator: Adobe Illustrator 29.8.4, SVG Export Plug-In . SVG Version: 2.1.1 Build 6)  -->
  <defs>
    <style>
      .st0 {
        fill: #fff;
      }
    </style>
  </defs>
  <path class="st0" d="M53.12,105.02c1.9,1.9,4.39,2.85,6.88,2.85s4.98-.95,6.88-2.85l38.14-38.14c3.79-3.79,3.79-9.97,0-13.76L66.88,14.98c-3.79-3.79-9.97-3.79-13.76,0L14.98,53.12c-3.79,3.79-3.79,9.97,0,13.76l38.14,38.14ZM17.81,55.95L55.95,17.81c1.12-1.12,2.59-1.68,4.05-1.68s2.94.56,4.05,1.68l38.14,38.14c2.23,2.23,2.23,5.87,0,8.11l-38.14,38.14c-2.24,2.23-5.87,2.23-8.11,0l-11.15-11.16,11.96-11.96c1.08.61,2.33.96,3.65.96,4.13,0,7.49-3.36,7.49-7.48,0-1.33-.35-2.57-.96-3.65l10.74-10.74c1.1.63,2.36.99,3.71.99,4.13,0,7.49-3.36,7.49-7.49s-3.36-7.49-7.49-7.49-7.49,3.36-7.49,7.49c0,1.33.35,2.57.96,3.65l-10.74,10.74c-1.1-.63-2.36-.99-3.71-.99s-2.58.35-3.67.97l-10.86-10.62c.66-1.12,1.05-2.41,1.05-3.8,0-4.13-3.36-7.48-7.49-7.48s-7.49,3.36-7.49,7.48,3.36,7.49,7.49,7.49c1.29,0,2.5-.33,3.56-.9l10.9,10.66c-.62,1.09-.99,2.35-.99,3.7s.37,2.62.99,3.71l-11.93,11.93-24.15-24.16c-2.23-2.23-2.23-5.87,0-8.1ZM63.88,72.55c0,1.92-1.56,3.48-3.49,3.48s-3.49-1.56-3.49-3.48,1.56-3.49,3.49-3.49,3.49,1.57,3.49,3.49ZM77.89,51.67c0-1.92,1.56-3.49,3.49-3.49s3.49,1.56,3.49,3.49-1.56,3.49-3.49,3.49-3.49-1.57-3.49-3.49ZM39.43,55.1c-1.92,0-3.49-1.56-3.49-3.49s1.56-3.48,3.49-3.48,3.49,1.56,3.49,3.48c0,1.93-1.56,3.49-3.49,3.49Z"/>
</svg>