<?xml version="1.0" encoding="UTF-8"?>
<svg id="Camada_1" xmlns="http://www.w3.org/2000/svg" version="1.1" xmlns:cc="http://creativecommons.org/ns#" xmlns:dc="http://purl.org/dc/elements/1.1/" xmlns:inkscape="http://www.inkscape.org/namespaces/inkscape" xmlns:rdf="http://www.w3.org/1999/02/22-rdf-syntax-ns#" xmlns:sodipodi="http://sodipodi.sourceforge.net/DTD/sodipodi-0.dtd" xmlns:svg="http://www.w3.org/2000/svg" viewBox="0 0 16.93 21.17">
  <!-- Generator: Adobe Illustrator 29.8.4, SVG Export Plug-In . SVG Version: 2.1.1 Build 6)  -->
  <defs>
    <style>
      .st0 {
        fill: #fff;
        fill-rule: evenodd;
      }
    </style>
  </defs>
  <path class="st0" d="M1.06.81c-.15,0-.26.12-.27.26,0,.01,0,.02,0,.03l1.33,12.18c.01.09.07.18.16.21l6.08,2.59c.07.03.14.03.21,0l6.08-2.59c.09-.04.15-.12.16-.21l1.33-12.18c.02-.15-.09-.28-.23-.29-.01,0-.02,0-.03,0H1.06ZM1.35,1.34h14.23l-1.28,11.74-5.83,2.49-5.83-2.49L1.35,1.34ZM9.19,4.36c-.12,0-.23.07-.27.19l-1.53,5.57c-.04.14.04.29.19.32.14.04.29-.04.32-.18l1.52-5.57c.04-.14-.04-.29-.18-.32-.02,0-.04,0-.06,0ZM11,5.21c-.07,0-.14.03-.18.09-.1.11-.09.27.01.37,0,0,0,0,0,0l1.89,1.74-1.89,1.74c-.11.1-.12.27-.02.37,0,0,0,0,0,0,.1.11.27.12.37.02,0,0,0,0,0,0l2.1-1.94c.11-.1.11-.27.01-.37,0,0,0,0-.01-.01l-2.1-1.94c-.05-.05-.12-.07-.19-.07ZM5.94,5.21c-.07,0-.14.02-.19.07l-2.11,1.94c-.11.1-.11.27-.01.37,0,0,0,0,.01.01l2.11,1.94c.11.1.27.09.37-.02.1-.11.09-.27-.01-.37,0,0,0,0,0,0l-1.89-1.74,1.89-1.74c.11-.1.12-.27.02-.37,0,0,0,0,0,0-.05-.05-.11-.08-.18-.08Z"/>
</svg>