<?xml version="1.0" encoding="UTF-8"?>
<svg id="Camada_1" xmlns="http://www.w3.org/2000/svg" version="1.1" viewBox="0 0 110 135">
  <!-- Generator: Adobe Illustrator 29.8.4, SVG Export Plug-In . SVG Version: 2.1.1 Build 6)  -->
  <defs>
    <style>
      .st0 {
        fill: #fff;
      }
    </style>
  </defs>
  <path class="st0" d="M24.47,31.18h-4.97c-.36,0-.68.14-.91.38-.23.23-.38.56-.38.91v15.47c0,.33.12.64.33.86l.05.05c.23.23.56.38.91.38h32.84c.36,0,.68-.15.91-.38s.38-.56.38-.91v-15.47c0-.36-.15-.68-.38-.91-.23-.23-.55-.38-.91-.38h-27.87,0ZM59.99,63.52c.17-.81.96-1.33,1.77-1.16s1.33.96,1.16,1.77l-5.17,24.59c-.17.81-.96,1.33-1.77,1.16s-1.33-.96-1.16-1.77l5.17-24.59ZM66.26,64.91c-.6-.57-.62-1.52-.05-2.11.57-.6,1.52-.62,2.11-.05l12.87,12.3c.6.57.62,1.52.05,2.11l-12.93,12.35c-.6.57-1.55.55-2.11-.05-.57-.6-.55-1.55.05-2.11l11.74-11.22-11.74-11.22ZM49.4,62.75c.6-.57,1.55-.55,2.11.05.57.6.55,1.55-.05,2.11l-11.74,11.22,11.74,11.21c.6.57.62,1.52.05,2.11-.57.6-1.52.62-2.11.05l-12.93-12.35c-.57-.6-.55-1.55.05-2.11l12.88-12.3ZM22.92,28.18v-7.84c0-2.07.85-3.95,2.2-5.3,1.36-1.36,3.24-2.2,5.31-2.2h45.03c1.02,0,1.98.19,2.88.56l.1.04c.09.03.18.07.26.12.76.36,1.45.86,2.07,1.48l11.82,11.82c.62.62,1.11,1.3,1.47,2.06.05.09.1.19.13.29l.04.09c.38.9.56,1.86.56,2.88v67.48c0,2.07-.84,3.95-2.2,5.31s-3.24,2.2-5.31,2.2H30.43c-2.07,0-3.95-.84-5.31-2.2l-.09-.09c-1.31-1.35-2.12-3.2-2.12-5.21v-47.42h-3.43c-1.18,0-2.26-.48-3.03-1.26l-.09-.1c-.72-.77-1.16-1.8-1.16-2.93v-15.47c0-1.18.48-2.25,1.26-3.03.78-.78,1.86-1.27,3.03-1.27h3.43ZM25.92,52.24v47.42c0,1.21.48,2.31,1.25,3.12l.07.07c.82.82,1.95,1.32,3.19,1.32h56.86c1.24,0,2.37-.51,3.19-1.32.82-.82,1.32-1.95,1.32-3.19V32.18c0-.34-.03-.68-.1-.99h-13.75c-.83,0-1.5-.67-1.5-1.5v-13.75c-.31-.06-.64-.1-.99-.1H30.44c-1.24,0-2.37.51-3.19,1.32-.82.81-1.32,1.94-1.32,3.19v7.84h26.41c1.18,0,2.25.48,3.03,1.26.78.78,1.27,1.85,1.27,3.03v15.47c0,1.18-.48,2.26-1.26,3.04s-1.86,1.26-3.04,1.26h-26.41ZM89.68,28.18l-10.23-10.23v10.23h10.23Z"/>
</svg>