<?xml version="1.0" encoding="UTF-8"?>
<svg id="Camada_1" xmlns="http://www.w3.org/2000/svg" version="1.1" xmlns:cc="http://creativecommons.org/ns#" xmlns:dc="http://purl.org/dc/elements/1.1/" xmlns:inkscape="http://www.inkscape.org/namespaces/inkscape" xmlns:rdf="http://www.w3.org/1999/02/22-rdf-syntax-ns#" xmlns:sodipodi="http://sodipodi.sourceforge.net/DTD/sodipodi-0.dtd" xmlns:svg="http://www.w3.org/2000/svg" viewBox="0 0 100 125">
  <!-- Generator: Adobe Illustrator 29.8.4, SVG Export Plug-In . SVG Version: 2.1.1 Build 6)  -->
  <defs>
    <style>
      .st0 {
        fill: #fff;
      }
    </style>
  </defs>
  <path class="st0" d="M15,24c-1.18,0-2.26.35-3.19.94l35.5,30.03c1.63,1.38,3.82,1.38,5.44,0l35.44-30.03c-.93-.58-2.01-.94-3.19-.94H15ZM9.34,28.03c-.21.62-.34,1.28-.34,1.97v40c0,1.2.36,2.31.97,3.25l25.41-23.16L9.34,28.03ZM90.66,28.03l-25.97,22.03,25.34,23.19c.61-.94.97-2.05.97-3.25V30c0-.69-.13-1.35-.34-1.97ZM61.63,52.69l-6.31,5.34c-3.05,2.59-7.54,2.59-10.59,0l-6.28-5.31-25.22,23c.56.17,1.16.28,1.78.28h70c.62,0,1.22-.11,1.78-.28,0,0-25.16-23.03-25.16-23.03Z"/>
</svg>