<?xml version="1.0" encoding="UTF-8"?>
<svg id="Camada_1" xmlns="http://www.w3.org/2000/svg" version="1.1" viewBox="0 0 110 135">
  <!-- Generator: Adobe Illustrator 29.8.4, SVG Export Plug-In . SVG Version: 2.1.1 Build 6)  -->
  <defs>
    <style>
      .st0 {
        fill: #fff;
      }
    </style>
  </defs>
  <path class="st0" d="M83.36,36.78c.66-1.19,1.01-2.53,1.03-3.89v-9c-.01-2.2-.89-4.31-2.45-5.86-1.55-1.57-3.66-2.46-5.86-2.47h-42.16c-4.61,0-8.34,3.73-8.34,8.34v9c.02,1.36.38,2.7,1.03,3.89-4.04.62-7.02,4.08-7.05,8.17v51.16c0,4.61,3.73,8.34,8.34,8.34h54.22c4.61,0,8.34-3.73,8.34-8.34v-51.16c-.04-4.09-3.04-7.55-7.09-8.17h0ZM30.14,23.89c-.01-1.04.39-2.04,1.11-2.78.74-.73,1.74-1.12,2.78-1.08h42.05c1.04-.04,2.04.36,2.78,1.08.73.74,1.14,1.74,1.14,2.78v9c.01,1.04-.39,2.04-1.11,2.78-.74.73-1.75,1.12-2.78,1.08h-42.19c-1.04.04-2.04-.36-2.78-1.08-.73-.74-1.12-1.74-1.11-2.78l.11-9ZM85.89,96.11c-.02,2.08-1.7,3.75-3.78,3.75H27.89c-2.08,0-3.77-1.67-3.78-3.75v-51.16c0-2.09,1.69-3.78,3.78-3.78h54.22c1,0,1.96.4,2.67,1.11.71.71,1.11,1.67,1.11,2.67v51.16Z"/>
  <path class="st0" d="M68.89,59.44l-11.11-6.55c-1.63-.95-3.64-.95-5.28,0l-11.39,6.55c-1.69.89-2.76,2.64-2.78,4.55v13.08c.02,1.92,1.09,3.68,2.78,4.59l11.33,6.53h0c1.63.94,3.64.94,5.28,0l11.17-6.53c1.69-.91,2.75-2.66,2.78-4.59v-13.08c-.02-1.91-1.09-3.66-2.78-4.55h0ZM67,77.09h0c0,.27-.13.52-.36.66l-11.36,6.55h0c-.23.12-.52.12-.75,0l-11.33-6.53c-.23-.14-.37-.39-.36-.67v-13.11c0-.27.13-.52.36-.67l11.33-6.53c.24-.14.54-.14.78,0l11.33,6.53h0c.23.14.36.4.36.67v13.09Z"/>
</svg>