<?xml version="1.0" encoding="UTF-8"?>
<svg id="Camada_1" xmlns="http://www.w3.org/2000/svg" version="1.1" xmlns:cc="http://creativecommons.org/ns#" xmlns:dc="http://purl.org/dc/elements/1.1/" xmlns:inkscape="http://www.inkscape.org/namespaces/inkscape" xmlns:rdf="http://www.w3.org/1999/02/22-rdf-syntax-ns#" xmlns:sodipodi="http://sodipodi.sourceforge.net/DTD/sodipodi-0.dtd" xmlns:svg="http://www.w3.org/2000/svg" viewBox="0 0 18.63 22.86">
  <!-- Generator: Adobe Illustrator 29.8.4, SVG Export Plug-In . SVG Version: 2.1.1 Build 6)  -->
  <defs>
    <style>
      .st0 {
        fill: #fff;
        fill-rule: evenodd;
      }
    </style>
  </defs>
  <path class="st0" d="M4.36,2.49c-.72,0-1.32.59-1.32,1.31v12.73c0,.72.59,1.31,1.32,1.31h9.9c.72,0,1.32-.59,1.32-1.31V3.8c0-.72-.59-1.31-1.32-1.31H4.36ZM4.36,3.02h9.9c.44,0,.79.34.79.78v12.73c0,.44-.35.78-.79.78H4.36c-.44,0-.79-.34-.79-.78V3.8c0-.44.35-.78.79-.78ZM7.82,5.12c-.07,0-.14.02-.19.07l-1.35,1.27-.58-.61c-.1-.1-.27-.11-.37,0-.11.1-.11.27-.01.37l.76.8c.1.11.27.11.37,0l1.55-1.45c.11-.1.11-.27.01-.37-.05-.05-.11-.08-.18-.08h0ZM9.28,5.84c-.15,0-.26.12-.26.26,0,.15.12.27.26.27h3.85c.15,0,.27-.12.27-.26,0,0,0,0,0,0,0-.15-.12-.26-.27-.26h-3.85ZM7.82,9.17c-.07,0-.14.02-.19.07l-1.35,1.27-.58-.61c-.1-.11-.27-.11-.37,0-.11.1-.11.27-.01.37,0,0,0,0,0,0l.76.8c.1.11.27.11.37,0l1.55-1.45c.11-.1.11-.27.01-.37,0,0,0,0,0,0-.05-.05-.11-.08-.18-.08ZM9.28,9.9c-.15,0-.26.12-.26.26,0,.15.12.27.26.27h3.85c.15,0,.27-.12.27-.26,0,0,0,0,0,0,0-.15-.12-.26-.27-.26h-3.85ZM7.82,13.22c-.07,0-.14.02-.19.07l-1.35,1.27-.58-.61c-.1-.11-.27-.11-.37,0-.11.1-.11.27-.01.37,0,0,0,0,0,0l.76.8c.1.11.27.11.37,0l1.55-1.45c.11-.1.11-.27.01-.37-.05-.05-.11-.08-.18-.08ZM9.28,13.95c-.15,0-.26.12-.26.27h0c0,.15.12.26.26.26h3.85c.15,0,.27-.12.27-.26,0,0,0,0,0,0,0-.15-.12-.27-.26-.27,0,0,0,0,0,0h-3.85Z"/>
</svg>