<?xml version="1.0" encoding="UTF-8"?>
<svg id="Camada_1" xmlns="http://www.w3.org/2000/svg" version="1.1" viewBox="0 0 110 135">
  <!-- Generator: Adobe Illustrator 29.8.4, SVG Export Plug-In . SVG Version: 2.1.1 Build 6)  -->
  <defs>
    <style>
      .st0 {
        fill: #fff;
      }
    </style>
  </defs>
  <path class="st0" d="M19.31,54.91h12.27c1.06,0,1.07-1.63,0-1.63h-12.27c-1.06,0-1.07,1.62,0,1.63Z"/>
  <path class="st0" d="M19.31,69.92h20.94c1.06,0,1.07-1.63,0-1.63h-20.94c-1.06,0-1.07,1.63,0,1.63Z"/>
  <path class="st0" d="M19.31,62.41h12.27c1.06,0,1.07-1.63,0-1.63h-12.27c-1.06,0-1.07,1.63,0,1.63Z"/>
  <path class="st0" d="M18.49,76.61c0,.45.37.82.82.82h40.68c1.05,0,1.08-1.63,0-1.63H19.31c-.45,0-.82.37-.82.82h0Z"/>
  <path class="st0" d="M79.98,18.59h-20.49c-12.47,0-23.03,9.54-24.4,21.84h-5.04c-6.57,0-12.75,2.56-17.38,7.2-13.13,12.86-7.33,35.76,10.24,40.91,0,0-.75,2.61-1.55,5.37-.9,3.12-1.86,6.43-1.86,6.43-.24.73.7,1.36,1.29.87l14.85-11.62h14.9c12.06.23,23.04-9.49,24.36-21.44l14.34,11.23c.28.22.67.23.96.03s.43-.56.33-.9l-3.42-11.81c26.85-8.91,21.16-47.41-7.13-48.12h0ZM66.76,81.25c-4.34,4.34-10.1,6.72-16.23,6.72h-15.18c-.18,0-.36.06-.5.17l-13.08,10.24,2.93-10.17c.06-.21.04-.44-.07-.63-10.22-3.36-17.47-11.37-17.53-22.57-.25-12.33,10.6-23.21,22.95-22.95h4.88c-.88,13.65,10.88,25.95,24.56,25.69h13.83c-.6,5.08-2.91,9.84-6.56,13.48h0ZM85.89,65.36c-.43.11-.71.59-.57,1.02l2.94,10.17-13.08-10.24c-.14-.11-.32-.17-.5-.17h-15.18c-12.33.25-23.21-10.62-22.95-22.95-.06-12.52,10.42-23,22.95-22.95h20.49c6.13,0,11.89,2.39,16.23,6.72,12.49,12.16,6.57,34.12-10.31,38.41h0Z"/>
  <path class="st0" d="M54.43,39.13c-6.51.21-6.5,9.64,0,9.85,6.5-.21,6.5-9.64,0-9.85ZM54.43,47.34c-4.34-.11-4.34-6.46,0-6.58,4.34.11,4.34,6.46,0,6.58Z"/>
  <path class="st0" d="M85.04,39.13c-6.5.21-6.5,9.64,0,9.85,6.5-.21,6.5-9.64,0-9.85ZM85.04,47.34c-4.34-.11-4.34-6.46,0-6.58,4.34.11,4.34,6.46,0,6.58Z"/>
  <path class="st0" d="M69.73,39.13c-6.51.21-6.5,9.64,0,9.85,6.5-.21,6.5-9.64,0-9.85ZM69.73,47.34c-4.34-.11-4.34-6.46,0-6.58,4.34.11,4.34,6.46,0,6.58Z"/>
</svg>