<?xml version="1.0" encoding="UTF-8"?>
<svg id="Camada_1" xmlns="http://www.w3.org/2000/svg" version="1.1" viewBox="0 0 110 135">
  <!-- Generator: Adobe Illustrator 29.8.4, SVG Export Plug-In . SVG Version: 2.1.1 Build 6)  -->
  <defs>
    <style>
      .st0 {
        fill: #fff;
      }
    </style>
  </defs>
  <path class="st0" d="M79.8,81.4c12.8-12.8,12.8-33.5,0-46.3-12.8-12.8-33.5-12.8-46.3,0-10,10-12.4,25.5-6,38.1-2.3,6.8-5.8,17.5-5.8,17.6l-1.1,3.6,20.8-7.1c12.6,6.6,28.3,4.2,38.4-5.9h0ZM41.5,45.6l2.8-2.8c1-1,2.6-1,3.6,0l3.6,3.6c1,1,1,2.6,0,3.6l-2.2,2.2s-.6,3.2,4.4,8.2l.5.5c5,5.1,8.2,4.4,8.2,4.4l2.2-2.2c1-1,2.6-1,3.6,0l3.6,3.6c1,1,1,2.6,0,3.6l-2.8,2.8c-1,1-2.4,1.5-3.9,1.3-3.3-.5-9.7-2.2-15.8-8.4l-.8-.8c-6.2-6.1-7.9-12.5-8.4-15.8-.1-1.3.3-2.8,1.4-3.8h0Z"/>
</svg>